<svg xmlns="http://www.w3.org/2000/svg" width="760" height="320" viewBox="0 0 760 320" font-family="Inter,Segoe UI,sans-serif"><rect width="760" height="320" fill="#ffffff"/><text x="20" y="26" fill="#1a1f2b" font-size="17" font-weight="700">Доля верных по типам запросов</text><text x="165.0" y="306" fill="#5b6472" font-size="13" text-anchor="middle">Инъекции</text><rect x="60" y="62" width="46" height="214" rx="4" fill="#2bb673" opacity="0.85"/><text x="83" y="56" fill="#1a1f2b" font-size="12" text-anchor="middle">40/40</text><rect x="122" y="68" width="46" height="208" rx="4" fill="#7c5cff" opacity="0.85"/><text x="145" y="62" fill="#1a1f2b" font-size="12" text-anchor="middle">39/40</text><rect x="184" y="89" width="46" height="187" rx="4" fill="#5b6472" opacity="0.85"/><text x="207" y="83" fill="#1a1f2b" font-size="12" text-anchor="middle">35/40</text><text x="395.0" y="306" fill="#5b6472" font-size="13" text-anchor="middle">Юридические</text><rect x="290" y="62" width="46" height="214" rx="4" fill="#2bb673" opacity="0.85"/><text x="313" y="56" fill="#1a1f2b" font-size="12" text-anchor="middle">31/31</text><rect x="352" y="90" width="46" height="186" rx="4" fill="#7c5cff" opacity="0.85"/><text x="375" y="84" fill="#1a1f2b" font-size="12" text-anchor="middle">27/31</text><rect x="414" y="118" width="46" height="158" rx="4" fill="#5b6472" opacity="0.85"/><text x="437" y="112" fill="#1a1f2b" font-size="12" text-anchor="middle">23/31</text><text x="625.0" y="306" fill="#5b6472" font-size="13" text-anchor="middle">Смешанные с данными</text><rect x="520" y="142" width="46" height="134" rx="4" fill="#2bb673" opacity="0.85"/><text x="543" y="136" fill="#1a1f2b" font-size="12" text-anchor="middle">32/51</text><rect x="582" y="167" width="46" height="109" rx="4" fill="#7c5cff" opacity="0.85"/><text x="605" y="161" fill="#1a1f2b" font-size="12" text-anchor="middle">26/51</text><rect x="644" y="197" width="46" height="79" rx="4" fill="#5b6472" opacity="0.85"/><text x="667" y="191" fill="#1a1f2b" font-size="12" text-anchor="middle">19/51</text><rect x="20" y="40" width="12" height="12" rx="3" fill="#2bb673"/><text x="38" y="50" fill="#5b6472" font-size="12">Gemini 3.1 Flash</text><rect x="195" y="40" width="12" height="12" rx="3" fill="#7c5cff"/><text x="213" y="50" fill="#5b6472" font-size="12">Qwen 3.5 9B (локально)</text><rect x="370" y="40" width="12" height="12" rx="3" fill="#5b6472"/><text x="388" y="50" fill="#5b6472" font-size="12">Llama 3.3 70B</text></svg>