<svg xmlns="http://www.w3.org/2000/svg" width="720" height="250" viewBox="0 0 720 250" font-family="Inter,Segoe UI,sans-serif"><rect width="720" height="250" fill="#ffffff"/><text x="20" y="26" fill="#1a1f2b" font-size="17" font-weight="700">Время ответа локальной Qwen по типам (сек)</text><text x="20" y="70" fill="#1a1f2b" font-size="14">Инъекции</text><rect x="220" y="56" width="360" height="26" rx="5" fill="#e9edf2"/><rect x="220" y="56" width="3" height="26" rx="5" fill="#7c5cff" opacity="0.85"/><text x="231" y="75" fill="#1a1f2b" font-size="13">медиана 0s</text><line x1="235" y1="52" x2="235" y2="86" stroke="#ff6b6b" stroke-width="2"/><text x="235" y="50" fill="#ff6b6b" font-size="11" text-anchor="middle">max 7</text><text x="20" y="130" fill="#1a1f2b" font-size="14">Смешанные</text><rect x="220" y="116" width="360" height="26" rx="5" fill="#e9edf2"/><rect x="220" y="116" width="81" height="26" rx="5" fill="#7c5cff" opacity="0.85"/><text x="309" y="135" fill="#1a1f2b" font-size="13">медиана 35s</text><line x1="580" y1="112" x2="580" y2="146" stroke="#ff6b6b" stroke-width="2"/><text x="580" y="110" fill="#ff6b6b" font-size="11" text-anchor="middle">max 156</text><text x="20" y="190" fill="#1a1f2b" font-size="14">Юридические</text><rect x="220" y="176" width="360" height="26" rx="5" fill="#e9edf2"/><rect x="220" y="176" width="90" height="26" rx="5" fill="#7c5cff" opacity="0.85"/><text x="318" y="195" fill="#1a1f2b" font-size="13">медиана 39s</text><line x1="512" y1="172" x2="512" y2="206" stroke="#ff6b6b" stroke-width="2"/><text x="512" y="170" fill="#ff6b6b" font-size="11" text-anchor="middle">max 127</text><text x="20" y="238" fill="#5b6472" font-size="13">Инъекции мгновенно (защита без вызова модели); диагностика и закон - медленно, модель зацикливается</text></svg>