<svg xmlns="http://www.w3.org/2000/svg" width="860" height="560" viewBox="0 0 860 560" font-family="Segoe UI, Roboto, sans-serif">
  <defs>
    <marker id="arr" markerWidth="9" markerHeight="9" refX="7" refY="3" orient="auto">
      <path d="M0,0 L7,3 L0,6 Z" fill="#5b6472"/>
    </marker>
    <style>
      .h{font-size:13px;fill:#0f1117;font-weight:700}
      .l{font-size:11.5px;fill:#34405a}
      .m{font-size:11.5px;font-family:'DejaVu Sans Mono',Consolas,monospace;fill:#2d3a52}
      .edge{stroke:#5b6472;stroke-width:1.6;fill:none;marker-end:url(#arr)}
    </style>
  </defs>
  <rect x="0" y="0" width="860" height="560" fill="#ffffff"/>
  <text x="28" y="34" font-size="19" font-weight="700" fill="#0f1117">Версия 2: сравнение моделей</text>
  <text x="28" y="56" font-size="12.5" fill="#5b6472">новые механизмы и усложненный набор 180 запросов, измерено в LangFuse</text>
  <line x1="92" y1="432" x2="812" y2="432" stroke="#e7eaf0" stroke-width="1"/>
  <text x="80" y="436" font-size="10.5" fill="#5b6472" text-anchor="end">0%</text>
  <line x1="92" y1="360" x2="812" y2="360" stroke="#e7eaf0" stroke-width="1"/>
  <text x="80" y="364" font-size="10.5" fill="#5b6472" text-anchor="end">25%</text>
  <line x1="92" y1="288" x2="812" y2="288" stroke="#e7eaf0" stroke-width="1"/>
  <text x="80" y="292" font-size="10.5" fill="#5b6472" text-anchor="end">50%</text>
  <line x1="92" y1="216" x2="812" y2="216" stroke="#e7eaf0" stroke-width="1"/>
  <text x="80" y="220" font-size="10.5" fill="#5b6472" text-anchor="end">75%</text>
  <line x1="92" y1="144" x2="812" y2="144" stroke="#e7eaf0" stroke-width="1"/>
  <text x="80" y="148" font-size="10.5" fill="#5b6472" text-anchor="end">100%</text>
  <rect x="148" y="167" width="30" height="265" rx="3" fill="#e8f0fb" stroke="#3a7bd5" stroke-width="1.4"/>
  <text x="163" y="160" font-size="11.5" font-weight="700" fill="#34405a" text-anchor="middle">92%</text>
  <rect x="186" y="184" width="30" height="248" rx="3" fill="#e6f3ee" stroke="#2bb673" stroke-width="1.4"/>
  <text x="201" y="177" font-size="11.5" font-weight="700" fill="#34405a" text-anchor="middle">86%</text>
  <text x="182" y="450" font-size="10.5" fill="#34405a" text-anchor="middle">Gemini</text>
  <text x="182" y="464" font-size="10.5" fill="#34405a" text-anchor="middle">flash-lite</text>
  <rect x="328" y="181" width="30" height="251" rx="3" fill="#e8f0fb" stroke="#3a7bd5" stroke-width="1.4"/>
  <text x="343" y="174" font-size="11.5" font-weight="700" fill="#34405a" text-anchor="middle">87%</text>
  <rect x="366" y="199" width="30" height="233" rx="3" fill="#e6f3ee" stroke="#2bb673" stroke-width="1.4"/>
  <text x="381" y="192" font-size="11.5" font-weight="700" fill="#34405a" text-anchor="middle">81%</text>
  <text x="362" y="450" font-size="10.5" fill="#34405a" text-anchor="middle">glm-4.7</text>
  <text x="362" y="464" font-size="10.5" fill="#34405a" text-anchor="middle">flash 30B</text>
  <rect x="508" y="187" width="30" height="245" rx="3" fill="#e8f0fb" stroke="#3a7bd5" stroke-width="1.4"/>
  <text x="523" y="180" font-size="11.5" font-weight="700" fill="#34405a" text-anchor="middle">85%</text>
  <rect x="546" y="207" width="30" height="225" rx="3" fill="#e6f3ee" stroke="#2bb673" stroke-width="1.4"/>
  <text x="561" y="200" font-size="11.5" font-weight="700" fill="#34405a" text-anchor="middle">78%</text>
  <text x="542" y="450" font-size="10.5" fill="#34405a" text-anchor="middle">Llama</text>
  <text x="542" y="464" font-size="10.5" fill="#34405a" text-anchor="middle">70B</text>
  <rect x="688" y="184" width="30" height="248" rx="3" fill="#e8f0fb" stroke="#3a7bd5" stroke-width="1.4"/>
  <text x="703" y="177" font-size="11.5" font-weight="700" fill="#34405a" text-anchor="middle">86%</text>
  <rect x="726" y="213" width="30" height="219" rx="3" fill="#e6f3ee" stroke="#2bb673" stroke-width="1.4"/>
  <text x="741" y="206" font-size="11.5" font-weight="700" fill="#34405a" text-anchor="middle">76%</text>
  <text x="722" y="450" font-size="10.5" fill="#34405a" text-anchor="middle">Qwen</text>
  <text x="722" y="464" font-size="10.5" fill="#34405a" text-anchor="middle">9B, целевая</text>
  <rect x="540" y="92" width="14" height="14" rx="3" fill="#e8f0fb" stroke="#3a7bd5" stroke-width="1.3"/>
  <text x="560" y="104" font-size="11.5" fill="#34405a">полный набор</text>
  <rect x="540" y="114" width="14" height="14" rx="3" fill="#e6f3ee" stroke="#2bb673" stroke-width="1.3"/>
  <text x="560" y="126" font-size="11.5" fill="#34405a">смешанные с данными</text>
  <rect x="28" y="470" width="804" height="58" rx="8" fill="#f3f4f7" stroke="#d8dde6" stroke-width="1.3"/>
  <text x="48" y="489" font-size="12" font-weight="700" fill="#34405a">Дешевая Qwen 9B (86 / 76) почти догнала сильную Gemini (92 / 86), Llama и glm рядом.</text>
  <text x="48" y="507" font-size="12" font-weight="400" fill="#34405a">Полный набор - 180, смешанные - 109. Qwen на подмножестве 126. Инъекции по 40/40, у Llama 38/40.</text>
</svg>
