<svg xmlns="http://www.w3.org/2000/svg" width="860" height="540" viewBox="0 0 860 540" font-family="Segoe UI, Roboto, sans-serif">
  <defs>
    <marker id="arr" markerWidth="9" markerHeight="9" refX="7" refY="3" orient="auto">
      <path d="M0,0 L7,3 L0,6 Z" fill="#5b6472"/>
    </marker>
    <style>
      .h{font-size:13px;fill:#0f1117;font-weight:700}
      .l{font-size:11.5px;fill:#34405a}
      .m{font-size:11.5px;font-family:'DejaVu Sans Mono',Consolas,monospace;fill:#2d3a52}
      .edge{stroke:#5b6472;stroke-width:1.6;fill:none;marker-end:url(#arr)}
    </style>
  </defs>
  <rect x="0" y="0" width="860" height="540" fill="#ffffff"/>
  <text x="28" y="34" font-size="19" font-weight="700" fill="#0f1117">Прирост качества по доработкам</text>
  <text x="28" y="56" font-size="12.5" fill="#5b6472">доля верных ответов на Gemini, измерено в LangFuse</text>
  <line x1="92" y1="432" x2="812" y2="432" stroke="#e7eaf0" stroke-width="1"/>
  <text x="80" y="436" font-size="10.5" fill="#5b6472" text-anchor="end">0%</text>
  <line x1="92" y1="357" x2="812" y2="357" stroke="#e7eaf0" stroke-width="1"/>
  <text x="80" y="361" font-size="10.5" fill="#5b6472" text-anchor="end">25%</text>
  <line x1="92" y1="282" x2="812" y2="282" stroke="#e7eaf0" stroke-width="1"/>
  <text x="80" y="286" font-size="10.5" fill="#5b6472" text-anchor="end">50%</text>
  <line x1="92" y1="207" x2="812" y2="207" stroke="#e7eaf0" stroke-width="1"/>
  <text x="80" y="211" font-size="10.5" fill="#5b6472" text-anchor="end">75%</text>
  <line x1="92" y1="132" x2="812" y2="132" stroke="#e7eaf0" stroke-width="1"/>
  <text x="80" y="136" font-size="10.5" fill="#5b6472" text-anchor="end">100%</text>
  <rect x="129" y="222" width="30" height="210" rx="3" fill="#e8f0fb" stroke="#3a7bd5" stroke-width="1.4"/>
  <text x="144" y="215" font-size="11.5" font-weight="700" fill="#34405a" text-anchor="middle">70%</text>
  <rect x="169" y="276" width="30" height="156" rx="3" fill="#e6f3ee" stroke="#2bb673" stroke-width="1.4"/>
  <text x="184" y="269" font-size="11.5" font-weight="700" fill="#34405a" text-anchor="middle">52%</text>
  <text x="164" y="450" font-size="10.5" fill="#34405a" text-anchor="middle">Первая</text>
  <text x="164" y="464" font-size="10.5" fill="#34405a" text-anchor="middle">версия</text>
  <rect x="273" y="225" width="30" height="207" rx="3" fill="#e8f0fb" stroke="#3a7bd5" stroke-width="1.4"/>
  <text x="288" y="218" font-size="11.5" font-weight="700" fill="#34405a" text-anchor="middle">69%</text>
  <rect x="313" y="282" width="30" height="150" rx="3" fill="#e6f3ee" stroke="#2bb673" stroke-width="1.4"/>
  <text x="328" y="275" font-size="11.5" font-weight="700" fill="#34405a" text-anchor="middle">50%</text>
  <text x="308" y="450" font-size="10.5" fill="#34405a" text-anchor="middle">Фрейм</text>
  <text x="308" y="464" font-size="10.5" fill="#34405a" text-anchor="middle">+ компилятор</text>
  <rect x="417" y="225" width="30" height="207" rx="3" fill="#e8f0fb" stroke="#3a7bd5" stroke-width="1.4"/>
  <text x="432" y="218" font-size="11.5" font-weight="700" fill="#34405a" text-anchor="middle">69%</text>
  <rect x="457" y="255" width="30" height="177" rx="3" fill="#e6f3ee" stroke="#2bb673" stroke-width="1.4"/>
  <text x="472" y="248" font-size="11.5" font-weight="700" fill="#34405a" text-anchor="middle">59%</text>
  <text x="452" y="450" font-size="10.5" fill="#34405a" text-anchor="middle">Устойчивость</text>
  <text x="452" y="464" font-size="10.5" fill="#34405a" text-anchor="middle">+ уточнения</text>
  <rect x="561" y="198" width="30" height="234" rx="3" fill="#e8f0fb" stroke="#3a7bd5" stroke-width="1.4"/>
  <text x="576" y="191" font-size="11.5" font-weight="700" fill="#34405a" text-anchor="middle">78%</text>
  <rect x="601" y="240" width="30" height="192" rx="3" fill="#e6f3ee" stroke="#2bb673" stroke-width="1.4"/>
  <text x="616" y="233" font-size="11.5" font-weight="700" fill="#34405a" text-anchor="middle">64%</text>
  <text x="596" y="450" font-size="10.5" fill="#34405a" text-anchor="middle">Фиксы</text>
  <text x="596" y="464" font-size="10.5" fill="#34405a" text-anchor="middle">протокола</text>
  <rect x="705" y="156" width="30" height="276" rx="3" fill="#e8f0fb" stroke="#3a7bd5" stroke-width="1.4"/>
  <text x="720" y="149" font-size="11.5" font-weight="700" fill="#34405a" text-anchor="middle">92%</text>
  <rect x="745" y="174" width="30" height="258" rx="3" fill="#e6f3ee" stroke="#2bb673" stroke-width="1.4"/>
  <text x="760" y="167" font-size="11.5" font-weight="700" fill="#34405a" text-anchor="middle">86%</text>
  <text x="740" y="450" font-size="10.5" fill="#34405a" text-anchor="middle">Механизмы</text>
  <text x="740" y="464" font-size="10.5" fill="#34405a" text-anchor="middle">(версия 2)</text>
  <rect x="540" y="92" width="14" height="14" rx="3" fill="#e8f0fb" stroke="#3a7bd5" stroke-width="1.3"/>
  <text x="560" y="104" font-size="11.5" fill="#34405a">полный набор, 180 запросов</text>
  <rect x="540" y="114" width="14" height="14" rx="3" fill="#e6f3ee" stroke="#2bb673" stroke-width="1.3"/>
  <text x="560" y="126" font-size="11.5" fill="#34405a">смешанные с данными, 109 запросов</text>
  <rect x="28" y="470" width="804" height="44" rx="8" fill="#f3f4f7" stroke="#d8dde6" stroke-width="1.3"/>
  <text x="48" y="489" font-size="12" font-weight="700" fill="#34405a">Перенос на слабые модели:</text>
  <text x="48" y="506" font-size="12" fill="#34405a">смешанные у Qwen 3.5 9B выросли с 57% до 76%, у Llama 70B с 8% до 78%. Дешевая модель догоняет сильную.</text>
</svg>
